<?xml version="1.0" encoding="UTF-8"?>
<svg version="1.1" xmlns="http://www.w3.org/2000/svg" width="515" height="262">
<path d="M0 0 C3.70390021 2.02666238 5.65363011 3.48044516 8 7 C8 7.99 8 8.98 8 10 C12.80567281 10.07878152 17.46866474 9.99849457 22.25 9.5 C40.96267389 7.71032092 40.96267389 7.71032092 47 12 C48.89854106 13.5867034 49.87306234 14.48272904 50.46875 16.91015625 C50.69836356 32.72479014 36.35451794 47.24400923 26.765625 58.66015625 C24.79921906 60.7775354 24.79921906 60.7775354 25 63 C27.44446727 64.78975388 29.88341707 66.44144315 32.4375 68.0625 C33.20376709 68.55274658 33.97003418 69.04299316 34.75952148 69.5480957 C44.02675993 75.39256463 53.6809918 80.45880662 63.5546875 85.1953125 C64.29001709 85.55149658 65.02534668 85.90768066 65.78295898 86.2746582 C67.18307894 86.94909559 68.58864952 87.6123725 70.00024414 88.26245117 C72.8198167 89.61632371 74.71959882 90.56610008 76.44140625 93.23046875 C76.62574219 93.81441406 76.81007813 94.39835937 77 95 C70.60741738 101.17214874 60.81269025 104.09179886 52 104 C51.01 103.67 50.02 103.34 49 103 C49.03480469 103.58523437 49.06960938 104.17046875 49.10546875 104.7734375 C49.25436634 109.49561816 49.07890383 113.92616451 48.15625 118.5625 C48.00003174 119.3560791 47.84381348 120.1496582 47.68286133 120.96728516 C47.35607673 122.55562902 47.0047884 124.13915361 46.62768555 125.71630859 C46.17944621 127.90489728 45.84889661 129.7692217 46 132 C48.31261087 134.76063379 48.31261087 134.76063379 51 137 C51.89759043 140.42668348 51.73608583 143.54156498 51 147 C47.77055456 150.67797952 44.61154275 151.80371046 39.83752441 152.16253662 C38.66981506 152.18987885 38.66981506 152.18987885 37.47851562 152.21777344 C36.59079468 152.24160095 35.70307373 152.26542847 34.78845215 152.28997803 C33.83732544 152.31287903 32.88619873 152.33578003 31.90625 152.359375 C29.88667996 152.42326451 27.86714924 152.48840699 25.84765625 152.5546875 C22.66788668 152.65603866 19.4886616 152.75026017 16.30810547 152.82324219 C13.23552756 152.8964554 10.16523516 153.0002586 7.09375 153.109375 C6.14262329 153.12417908 5.19149658 153.13898315 4.21154785 153.15423584 C-1.24792314 153.29418684 -1.24792314 153.29418684 -5.50585938 156.49316406 C-5.99892578 157.32041992 -6.49199219 158.14767578 -7 159 C-10.72370546 160.86185273 -14.93599251 160.41600077 -19 160 C-22 158.75 -22 158.75 -24 156 C-26.04695576 147.66460169 -26.62639433 138.92883844 -27.43261719 130.39941406 C-27.62550042 128.36973419 -27.82799269 126.3411643 -28.03125 124.3125 C-28.7174592 117.18432693 -29.21021201 110.16207174 -29 103 C-29.97839844 103.45052734 -29.97839844 103.45052734 -30.9765625 103.91015625 C-39.89009957 107.78846515 -39.89009957 107.78846515 -45 106 C-45.99 105.01 -45.99 105.01 -47 104 C-49.056956 109.12677019 -51.10215391 114.25740407 -53.11328125 119.40234375 C-63.08966274 144.66714754 -63.08966274 144.66714754 -72 151 C-76.03277723 152.09984834 -78.23246584 152.27089441 -82.1875 150.875 C-85.29626722 148.80248852 -87.09563232 147.22277608 -89 144 C-90.18471645 138.07641777 -87.86293049 134.38182804 -84.98046875 129.41796875 C-82.52828339 125.18589342 -80.22399555 120.88581631 -77.9375 116.5625 C-77.28177002 115.32898804 -77.28177002 115.32898804 -76.61279297 114.07055664 C-74.22344693 109.52138303 -72.10000639 104.98913472 -70.25 100.1875 C-67.98377777 94.4900258 -65.39580793 90.48022397 -59.5625 87.9375 C-55.85313277 88.02797237 -53.32393623 89.3706195 -50 91 C-50 91.66 -50 92.32 -50 93 C-45.8075547 93 -45.20551698 92.78271664 -42 90.5 C-38.41561635 87.99093144 -34.79691741 85.56709323 -31.125 83.1875 C-21.75008004 76.93358262 -13.33837614 69.55600998 -5 62 C-8.53613714 57.21224044 -12.14483704 52.53548584 -16 48 C-19.07011757 49.35191728 -20.95541236 50.8268913 -23.1875 53.3125 C-27.76035257 58.00310843 -32.75755149 61.37645221 -39.25 62.625 C-43.11490408 61.74661271 -44.63552154 60.12945679 -47 57 C-47.52427125 53.70303648 -47.29905938 52.42066272 -45.34765625 49.67578125 C-44.59355469 48.89589844 -43.83945313 48.11601563 -43.0625 47.3125 C-42.2375 46.4359375 -41.4125 45.559375 -40.5625 44.65625 C-39.716875 43.7796875 -38.87125 42.903125 -38 42 C-27.59809934 31.16468681 -19.86387727 19.0143755 -12.7890625 5.828125 C-9.34810723 0.38871099 -6.4035248 -0.7728392 0 0 Z M2.9375 29.75 C1.68839844 29.88921875 0.43929687 30.0284375 -0.84765625 30.171875 C-4.48005554 30.77715975 -4.48005554 30.77715975 -7 35 C-2.38 39.62 2.24 44.24 7 49 C11.17435706 47.60854765 12.96781975 44.61865188 15.5625 41.25 C16.05685547 40.62867188 16.55121094 40.00734375 17.06054688 39.3671875 C19.65064186 36.0445758 21.68996355 33.06188815 23 29 C16.26213074 28.77414963 9.6310679 28.980399 2.9375 29.75 Z M4.8125 79.4375 C-1.69773715 84.99506844 -8.71216881 89.53674243 -16 94 C-8.00263056 99.33157963 8.12669388 95.75573271 17.3125 95.125 C19.11074219 95.00753418 19.11074219 95.00753418 20.9453125 94.88769531 C22.07324219 94.80358398 23.20117188 94.71947266 24.36328125 94.6328125 C25.37688721 94.55949707 26.39049316 94.48618164 27.43481445 94.41064453 C30.23311374 94.14518205 30.23311374 94.14518205 33 92 C32.0821875 91.35933594 31.164375 90.71867187 30.21875 90.05859375 C24.00610572 85.69002411 17.94141187 81.34876919 12.35546875 76.1796875 C9.32438608 73.54168471 7.31959081 77.26159688 4.8125 79.4375 Z M-6 115 C-5.67 121.6 -5.34 128.2 -5 135 C-1.12478013 134.85880982 2.75010825 134.71222188 6.625 134.5625 C7.71941406 134.52318359 8.81382812 134.48386719 9.94140625 134.44335938 C11.00488281 134.40146484 12.06835938 134.35957031 13.1640625 134.31640625 C14.62513428 134.26141968 14.62513428 134.26141968 16.11572266 134.20532227 C19.09673467 133.99311378 22.05210683 133.49131553 25 133 C25.33 126.4 25.66 119.8 26 113 C9.77932836 112.32643878 9.77932836 112.32643878 -6 115 Z " fill="#5A9BD5" transform="translate(260,59)"/>
<path d="M0 0 C3 2.5 3 2.5 5 5 C5.495 5.495 5.495 5.495 6 6 C6.14888672 7.61648437 6.14888672 7.61648437 6.30078125 9.265625 C8.21942624 19.51268984 22.91287681 27.99142909 31 34 C31.97283936 34.72340576 31.97283936 34.72340576 32.96533203 35.46142578 C45.04018613 44.36409734 57.75741158 52.04342187 70.71533203 59.57910156 C71.60462402 60.10213867 72.49391602 60.62517578 73.41015625 61.1640625 C74.62070679 61.87103271 74.62070679 61.87103271 75.85571289 62.59228516 C77.89038146 63.92803592 79.47648511 65.10334813 81 67 C81 67.99 81 68.98 81 70 C63.41849591 79.46408624 63.41849591 79.46408624 55 78 C53.58045656 77.20131483 52.18833266 76.35278757 50.8203125 75.46875 C50.10375488 75.00919922 49.38719727 74.54964844 48.64892578 74.07617188 C48.10478027 73.72103516 47.56063477 73.36589844 47 73 C46.32736419 77.39494155 45.66293364 81.79108538 45 86.1875 C44.71382812 88.05631836 44.71382812 88.05631836 44.421875 89.96289062 C44.24140625 91.16494141 44.0609375 92.36699219 43.875 93.60546875 C43.70742188 94.71043701 43.53984375 95.81540527 43.3671875 96.95385742 C43.03691407 99.69376542 42.81831909 102.2468591 43 105 C43.474375 105.474375 43.94875 105.94875 44.4375 106.4375 C46.74971345 108.74971345 46.74403344 110.80041804 47 114 C46.5625 116.875 46.5625 116.875 46 119 C45.34 119 44.68 119 44 119 C43.505 120.485 43.505 120.485 43 122 C40.16642997 123.41678502 37.62161633 123.29363217 34.45703125 123.46484375 C33.78859695 123.50226181 33.12016266 123.53967987 32.43147278 123.57823181 C30.9829176 123.65899181 29.53425719 123.73788085 28.08551025 123.81512451 C25.80126342 123.93810496 23.51757514 124.06873618 21.23388672 124.20166016 C14.21887708 124.60808794 7.20378645 124.99634081 0.18479919 125.32771301 C-2.65909482 125.4647998 -5.50211172 125.61633213 -8.34512329 125.77053833 C-10.34556178 125.87348505 -12.34700329 125.95630348 -14.34838867 126.03881836 C-15.56115479 126.10593018 -16.7739209 126.17304199 -18.0234375 126.2421875 C-19.08481934 126.2922998 -20.14620117 126.34241211 -21.23974609 126.39404297 C-24.61266665 127.13449837 -25.76990732 128.43418107 -28 131 C-30.43954658 132.21977329 -32.15305849 132.20153813 -34.875 132.25 C-36.17050781 132.28867187 -36.17050781 132.28867187 -37.4921875 132.328125 C-40.48225103 131.93690173 -41.83879275 131.07073811 -44 129 C-44 128.34 -44 127.68 -44 127 C-44.66 127 -45.32 127 -46 127 C-50.36275707 88.92907039 -50.36275707 88.92907039 -52 74 C-52.85722656 74.54269531 -53.71445312 75.08539063 -54.59765625 75.64453125 C-55.75244232 76.3674461 -56.90739946 77.09008773 -58.0625 77.8125 C-58.62388672 78.16892578 -59.18527344 78.52535156 -59.76367188 78.89257812 C-71.40938523 86.14619387 -71.40938523 86.14619387 -78 85 C-81.32274404 82.54405875 -82.77618008 81.0743356 -83.625 77 C-82.38920093 71.06816445 -76.50868765 67.73380447 -71.875 64.25 C-70.71524902 63.36836597 -69.55640904 62.48553241 -68.3984375 61.6015625 C-67.82448242 61.16360352 -67.25052734 60.72564453 -66.65917969 60.27441406 C-46.20718376 44.56525886 -28.51219526 26.41530414 -15.29296875 4.12109375 C-11.69267533 -1.78512777 -6.09278879 -1.85432702 0 0 Z M-4 28 C-5.66538517 29.8417541 -5.66538517 29.8417541 -7.4375 32.25 C-14.49505549 41.28008462 -22.11758481 49.72377318 -31 57 C-31.60199219 57.5053125 -32.20398438 58.010625 -32.82421875 58.53125 C-34.21035235 59.69443903 -35.60418197 60.84845013 -37 62 C-32.69020389 64.87319741 -30.00406324 65.17583658 -24.94140625 65.15625 C-23.82917442 65.15365173 -23.82917442 65.15365173 -22.69447327 65.15100098 C-11.75690409 65.05051433 -0.84720203 64.22769332 10.0625 63.5 C12.2974937 63.35496956 14.53251965 63.21043501 16.76757812 63.06640625 C22.17876956 62.71664111 27.58953397 62.36080408 33 62 C29.63468584 58.6181599 26.22355629 55.3284316 22.6875 52.125 C21.72457031 51.25230469 20.76164062 50.37960938 19.76953125 49.48046875 C17.49155184 47.44024742 15.19371298 45.43094262 12.875 43.4375 C7.51177118 38.77237741 1.95554781 33.93332172 -2 28 C-2.66 28 -3.32 28 -4 28 Z M-8.125 82.9375 C-9.41148437 83.02451172 -10.69796875 83.11152344 -12.0234375 83.20117188 C-19.07310601 83.68490916 -19.07310601 83.68490916 -26 85 C-25.67 92.26 -25.34 99.52 -25 107 C-19.37640937 106.73719155 -13.75304431 106.47195231 -8.12988281 106.20043945 C-6.21719102 106.10882612 -4.30443002 106.01864584 -2.39160156 105.92993164 C0.35891896 105.80211669 3.10914886 105.66913865 5.859375 105.53515625 C6.71368103 105.49656998 7.56798706 105.4579837 8.44818115 105.41822815 C9.24870911 105.37826218 10.04923706 105.3382962 10.87402344 105.29711914 C11.57573669 105.26380997 12.27744995 105.23050079 13.00042725 105.19618225 C15.07837457 104.99231051 16.9898902 104.55548623 19 104 C19.33801152 101.45887768 19.67053379 98.91723254 20 96.375 C20.09539062 95.66214844 20.19078125 94.94929688 20.2890625 94.21484375 C20.42441406 93.16103516 20.42441406 93.16103516 20.5625 92.0859375 C20.64628906 91.4470459 20.73007812 90.8081543 20.81640625 90.14990234 C21.04883466 87.42814089 21.02719996 84.73019646 21 82 C11.23804687 81.87286671 1.61306318 82.22827123 -8.125 82.9375 Z " fill="#5B9BD5" transform="translate(431,87)"/>
<path d="M0 0 C0.77907715 0.01385742 1.5581543 0.02771484 2.36083984 0.04199219 C4.04104214 0.07718315 5.72108478 0.12078831 7.40087891 0.171875 C10.14608792 0.25245351 12.89073116 0.29789597 15.63671875 0.34375 C17.48704637 0.39338861 19.33731146 0.44542314 21.1875 0.5 C22.05109131 0.51385742 22.91468262 0.52771484 23.80444336 0.54199219 C33.37112419 0.91704692 39.3134622 4.76449401 45.80859375 11.62109375 C56.30995364 23.86964697 56.30995364 23.86964697 57.0625 30.3125 C56.10479002 38.52144267 48.12098356 45.71033533 42.01953125 50.6171875 C39.54185858 52.68438745 37.32720676 54.95164232 35.0625 57.25 C34.10807814 58.19533212 33.15230815 59.13930476 32.1953125 60.08203125 C27.12518364 65.09878155 22.15979585 70.12459017 17.53125 75.55859375 C15.48690477 77.91285302 13.30016801 80.08014011 11.0625 82.25 C11.76375 82.34796875 12.465 82.4459375 13.1875 82.546875 C24.22427417 84.28636658 30.69362796 87.81155254 38.0625 96.25 C40.36258082 99.55846768 42.36819276 103.00791431 44.375 106.5 C48.89337028 114.10541433 53.55976633 120.63303112 59.8203125 126.875 C63.15090241 130.40287224 64.89619234 133.04426947 65.5625 137.875 C65.0625 141.25 65.0625 141.25 63.11328125 142.9375 C58.92243144 144.74047764 55.26354348 144.68822473 50.75 144.625 C49.93337891 144.63660156 49.11675781 144.64820313 48.27539062 144.66015625 C41.80793161 144.62923613 36.06160248 143.67340639 30.92578125 139.5234375 C28.13179689 136.10309392 25.72697238 132.80081031 23.6875 128.875 C21.24983368 124.22272179 18.04449285 120.69337632 14.47265625 116.87109375 C10.45868086 112.50581419 6.77530345 107.87148192 3.0625 103.25 C2.31613281 102.37988281 1.56976563 101.50976562 0.80078125 100.61328125 C-0.9375 98.25 -0.9375 98.25 -0.9375 95.25 C-1.5975 95.25 -2.2575 95.25 -2.9375 95.25 C-3.15019531 95.79140625 -3.36289063 96.3328125 -3.58203125 96.890625 C-5.42773208 100.10331462 -7.97731152 102.45526373 -10.625 105 C-14.64455515 108.93916404 -18.52358454 112.90558516 -22.1640625 117.203125 C-23.51853891 118.76644138 -24.9178496 120.2910227 -26.3359375 121.796875 C-31.41289884 127.19400507 -35.5831307 132.43998401 -39.171875 138.9375 C-41.80792499 142.39002565 -44.64388742 143.93942949 -48.97851562 144.52636719 C-51.265081 144.65317316 -53.52287339 144.65940174 -55.8125 144.625 C-56.57691406 144.63660156 -57.34132813 144.64820313 -58.12890625 144.66015625 C-63.31957321 144.63371822 -70.04775299 144.13974701 -73.9375 140.25 C-74.86850467 133.83641225 -74.05415629 130.80651808 -70.1875 125.5625 C-68.77631312 123.78729671 -67.36014109 122.01603722 -65.9375 120.25 C-65.12758191 119.03278207 -64.33104605 117.80625391 -63.5625 116.5625 C-62.758125 115.4178125 -62.758125 115.4178125 -61.9375 114.25 C-61.2775 114.25 -60.6175 114.25 -59.9375 114.25 C-59.68871094 113.68410156 -59.43992187 113.11820312 -59.18359375 112.53515625 C-53.69775789 102.47492435 -42.90656379 93.49447211 -34.28588867 86.09619141 C-29.84766437 82.2230886 -25.65948764 78.13358048 -21.4921875 73.97265625 C-20.7186795 73.20247665 -19.94517151 72.43229706 -19.14822388 71.63877869 C-17.52508215 70.0206667 -15.90326283 68.4012272 -14.28271484 66.78051758 C-11.81758568 64.31758115 -9.34455603 61.86276716 -6.87109375 59.40820312 C-5.28596847 57.82601145 -3.70131696 56.24334496 -2.1171875 54.66015625 C-1.38579559 53.93594986 -0.65440369 53.21174347 0.09915161 52.46559143 C4.10075485 48.44626042 7.6188053 44.37700133 10.84225464 39.70433044 C11.24493561 39.2244014 11.64761658 38.74447235 12.0625 38.25 C12.7225 38.25 13.3825 38.25 14.0625 38.25 C14.3925 35.94 14.7225 33.63 15.0625 31.25 C13.7940625 30.88841797 13.7940625 30.88841797 12.5 30.51953125 C8.67385454 29.10646617 5.44407378 27.17096303 2.0625 24.9375 C1.47210938 24.55916016 0.88171875 24.18082031 0.2734375 23.79101562 C-11.70679021 15.99331235 -11.70679021 15.99331235 -12.9375 10.25 C-12.72568353 4.10732244 -12.72568353 4.10732244 -10.37890625 1.5546875 C-6.95184366 -0.27673475 -3.78314956 -0.10994189 0 0 Z " fill="#5B9BD4" transform="translate(73.9375,84.75)"/>
<path d="M0 0 C3.19818845 2.81052925 4.80173732 4.8726801 5.3828125 9.1953125 C6.10561423 26.10887292 -4.92849436 40.41062757 -15.7109375 52.4453125 C-21.28565769 58.42335396 -27.66423524 63.76217614 -34.3125 68.5078125 C-36.94210829 70.44820894 -38.77100417 71.86378792 -39.3515625 75.171875 C-39.37265163 77.43544184 -39.25106321 79.5727628 -38.9375 81.8125 C-38.133125 82.01875 -37.32875 82.225 -36.5 82.4375 C-26.50095425 86.29678082 -19.09297868 93.15859512 -14.63671875 102.8984375 C-13.57674642 105.80003774 -13.32967913 107.77339565 -13.9375 110.8125 C-17.56695481 115.27154448 -21.43418256 118.53731262 -27.2421875 119.17578125 C-29.00949219 119.15064453 -29.00949219 119.15064453 -30.8125 119.125 C-31.98554687 119.12113281 -33.15859375 119.11726563 -34.3671875 119.11328125 C-41.31659347 118.52782801 -45.46479677 116.90431705 -50.5 112.0625 C-50.99959229 111.58586914 -51.49918457 111.10923828 -52.01391602 110.61816406 C-53.6684801 109.02949758 -55.30297641 107.42176192 -56.9375 105.8125 C-58.17440976 104.61451167 -59.41139073 103.41659685 -60.6484375 102.21875 C-61.89204948 101.00145358 -63.13426212 99.78272574 -64.375 98.5625 C-64.95386963 97.99692383 -65.53273926 97.43134766 -66.12915039 96.84863281 C-71.75359341 91.23318367 -76.92602696 85.66059345 -77.375 77.375 C-77.24550282 68.49149316 -72.64651908 61.20000558 -66.5625 55 C-63.76326421 52.38332307 -60.86692062 49.90591618 -57.9375 47.4375 C-47.7827999 38.63675992 -40.28405663 26.63234893 -32.42041016 15.83618164 C-31.9310498 15.1683667 -31.44168945 14.50055176 -30.9375 13.8125 C-30.42106934 13.06669678 -29.90463867 12.32089355 -29.37255859 11.55249023 C-28.89898926 10.97829346 -28.42541992 10.40409668 -27.9375 9.8125 C-27.2775 9.8125 -26.6175 9.8125 -25.9375 9.8125 C-25.68871094 9.21824219 -25.43992188 8.62398437 -25.18359375 8.01171875 C-23.75684287 5.49365999 -22.33322921 4.31517908 -20 2.625 C-19.31035156 2.11582031 -18.62070312 1.60664063 -17.91015625 1.08203125 C-12.6849191 -2.28074513 -5.65197795 -2.28484215 0 0 Z " fill="#9DC2E5" transform="translate(80.9375,29.1875)"/>
<path d="M0 0 C6.49021365 5.7690788 10.47381923 13.18982256 14.87182617 20.57788086 C18.85309925 27.17009304 23.14701768 32.66707475 28.58984375 38.09375 C31.92043366 41.62162224 33.66572359 44.26301947 34.33203125 49.09375 C33.83203125 52.46875 33.83203125 52.46875 31.8828125 54.15625 C27.69196269 55.95922764 24.03307473 55.90697473 19.51953125 55.84375 C18.29459961 55.86115234 18.29459961 55.86115234 17.04492188 55.87890625 C10.57746286 55.84798613 4.83113373 54.89215639 -0.3046875 50.7421875 C-3.09867186 47.32184392 -5.50349637 44.01956031 -7.54296875 40.09375 C-9.98063507 35.44147179 -13.1859759 31.91212632 -16.7578125 28.08984375 C-20.77178789 23.72456419 -24.4551653 19.09023192 -28.16796875 14.46875 C-29.25658203 13.16357422 -29.25658203 13.16357422 -30.3671875 11.83203125 C-33.40464629 7.8457784 -33.68490257 4.37962131 -33.16796875 -0.53125 C-24.78715946 -9.63041437 -9.06205992 -6.40059007 0 0 Z " fill="#6FAD47" transform="translate(105.16796875,173.53125)"/>
<path d="M0 0 C3.78580423 2.03850997 7.05061257 4.10122513 9 8 C9.96694141 12.51239327 9.75401698 14.66596995 7.4765625 18.6953125 C-1.83507387 31.67621823 -16.18110892 48.34738498 -32 53 C-35.3125 52.9375 -35.3125 52.9375 -38 52 C-39.375 49.9375 -39.375 49.9375 -40 48 C-40.66 48 -41.32 48 -42 48 C-42.56610144 44.84600628 -42.4330635 42.71496332 -40.7578125 39.94921875 C-37.63195351 35.89424499 -34.21817999 32.13688172 -30.75 28.375 C-26.91195287 24.17425082 -23.4812771 19.77366868 -20.125 15.1875 C-19.66061523 14.55312012 -19.19623047 13.91874023 -18.71777344 13.26513672 C-16.79996215 10.61148636 -14.99040877 7.98380644 -13.3203125 5.1640625 C-10.16458307 -0.00834609 -5.7207825 -0.70255224 0 0 Z " fill="#5B9BD5" transform="translate(401,62)"/>
<path d="M0 0 C2.94036077 1.68612775 5.65208496 3.61008092 8.375 5.625 C9.1081543 6.15697998 9.84130859 6.68895996 10.59667969 7.23706055 C12.74439832 8.80776255 14.87545694 10.39812941 17 12 C17.58233398 12.43747559 18.16466797 12.87495117 18.76464844 13.32568359 C24.41659941 17.61889315 29.61003438 21.68765023 33 28 C33.38634028 31.86340281 33.2228253 34.3315241 32 38 C28.78120566 40.95819173 25.19195015 43.66127946 20.80078125 44.33984375 C17.30393897 44.08007832 15.18340126 43.15130604 12.5 40.9375 C11.675 39.968125 10.85 38.99875 10 38 C8.71597861 36.72144253 7.42358802 35.45125999 6.125 34.1875 C3.51379947 31.58117112 1.02478539 28.92663624 -1.375 26.125 C-4.98118547 21.91917168 -8.89928347 18.06608948 -12.86328125 14.19921875 C-15.42934003 11.55810158 -16.87707795 9.80777344 -17.4375 6.125 C-16.85352879 1.95377709 -15.21214753 0.61453869 -12 -2 C-7.47674857 -3.50775048 -4.26632576 -1.85350256 0 0 Z " fill="#5B9BD5" transform="translate(456,63)"/>
<path d="M0 0 C3.04212418 0.9100515 5.79343548 2.19884571 8.625 3.625 C9.69234375 4.12193359 9.69234375 4.12193359 10.78125 4.62890625 C16.06886191 7.19523804 22.28164382 10.56328764 25 16 C25.13357453 19.67329964 25.1671568 22.49852959 24 26 C23.34 26 22.68 26 22 26 C21.773125 26.61875 21.54625 27.2375 21.3125 27.875 C19.5371368 30.74939757 18.26511006 31.20186198 15 32 C9.58723642 31.66486394 6.75372941 30.55409429 2.6875 27 C1.75550781 26.19433594 0.82351562 25.38867188 -0.13671875 24.55859375 C-1.08160156 23.71425781 -2.02648437 22.86992188 -3 22 C-3.95519531 21.16597656 -4.91039062 20.33195312 -5.89453125 19.47265625 C-13.80081883 12.49385877 -13.80081883 12.49385877 -14.375 8.1875 C-14 5 -14 5 -12.0625 2.125 C-7.9375343 -0.7372211 -4.89674117 -0.59964102 0 0 Z " fill="#5A9BD5" transform="translate(189,66)"/>
<path d="M0 0 C1.36701593 0.68939464 2.7277454 1.39139076 4.08203125 2.10546875 C4.76716797 2.44900391 5.45230469 2.79253906 6.15820312 3.14648438 C12.40598257 6.35155314 17.41341596 9.40098182 19.89453125 16.29296875 C19.89453125 21.83206207 17.55824561 24.45053662 13.89453125 28.29296875 C10.67127112 29.90459881 7.39003379 29.74144832 3.89453125 29.29296875 C-1.32340292 26.68400166 -5.37472568 22.44739837 -9.640625 18.51171875 C-11.30447081 17.01399384 -13.02405468 15.57628453 -14.7890625 14.19921875 C-17.98453285 11.56955681 -19.02840597 9.99937761 -19.48046875 5.85546875 C-19.10546875 2.29296875 -19.10546875 2.29296875 -17.29296875 -0.08203125 C-11.8473515 -4.12734693 -5.76400119 -2.64511437 0 0 Z " fill="#5B9BD5" transform="translate(187.10546875,106.70703125)"/>
</svg>
